{
	"asset":{
		"generator":"Khronos glTF Blender I/O v3.5.30",
		"version":"2.0"
	},
	"scene":0,
	"scenes":[
		{
			"name":"Scene",
			"nodes":[
				0,
				1,
				2,
				3,
				4,
				5,
				6
			]
		}
	],
	"nodes":[
		{
			"mesh":0,
			"name":"Ground",
			"translation":[
				0,
				-1,
				0
			]
		},
		{
			"mesh":1,
			"name":"BuildingBase",
			"scale":[
				30,
				0.20000000298023224,
				25
			],
			"translation":[
				6.852261066436768,
				-0.04999971389770508,
				11.947532653808594
			]
		},
		{
			"mesh":2,
			"name":"BuildingFloor.001",
			"scale":[
				30,
				0.20000000298023224,
				25
			],
			"translation":[
				6.852261066436768,
				3.15000057220459,
				11.947532653808594
			]
		},
		{
			"mesh":3,
			"name":"BuildingSmallFloor.001",
			"scale":[
				30,
				0.20000000298023224,
				25
			],
			"translation":[
				6.852261066436768,
				38.349998474121094,
				11.947532653808594
			]
		},
		{
			"mesh":4,
			"name":"Fassade",
			"translation":[
				6.852261066436768,
				1.950000524520874,
				38.322532653808594
			]
		},
		{
			"mesh":5,
			"name":"Crane Ground",
			"translation":[
				-20.5,
				-0.19999802112579346,
				-30.5
			]
		},
		{
			"mesh":6,
			"name":"Crane Mounted",
			"scale":[
				0.934090256690979,
				0.934090256690979,
				0.934090256690979
			],
			"translation":[
				-12.536924362182617,
				21.12643051147461,
				39.38166427612305
			]
		}
	],
	"materials":[
		{
			"doubleSided":true,
			"name":"Submission_Diffuse_Shader.001",
			"pbrMetallicRoughness":{
				"baseColorTexture":{
					"index":0
				},
				"metallicFactor":0,
				"roughnessFactor":0.800000011920929
			}
		},
		{
			"doubleSided":true,
			"name":"Submission_Diffuse_Shader",
			"pbrMetallicRoughness":{
				"baseColorTexture":{
					"index":1
				},
				"metallicFactor":0,
				"roughnessFactor":0.800000011920929
			}
		}
	],
	"meshes":[
		{
			"name":"Plane.006",
			"primitives":[
				{
					"attributes":{
						"POSITION":0,
						"TEXCOORD_0":1,
						"NORMAL":2
					},
					"indices":3,
					"material":0
				},
				{
					"attributes":{
						"POSITION":4,
						"TEXCOORD_0":5,
						"NORMAL":6
					},
					"indices":7,
					"material":1
				}
			]
		},
		{
			"name":"Cube",
			"primitives":[
				{
					"attributes":{
						"POSITION":8,
						"TEXCOORD_0":9,
						"NORMAL":10
					},
					"indices":11,
					"material":1
				}
			]
		},
		{
			"name":"Cube.048",
			"primitives":[
				{
					"attributes":{
						"POSITION":12,
						"TEXCOORD_0":13,
						"NORMAL":14
					},
					"indices":15,
					"material":1
				}
			]
		},
		{
			"name":"Cube.060",
			"primitives":[
				{
					"attributes":{
						"POSITION":16,
						"TEXCOORD_0":17,
						"NORMAL":18
					},
					"indices":19,
					"material":1
				}
			]
		},
		{
			"name":"Cube.068",
			"primitives":[
				{
					"attributes":{
						"POSITION":20,
						"TEXCOORD_0":21,
						"NORMAL":22
					},
					"indices":23,
					"material":1
				}
			]
		},
		{
			"name":"Cube.076",
			"primitives":[
				{
					"attributes":{
						"POSITION":24,
						"TEXCOORD_0":25,
						"NORMAL":26
					},
					"indices":27,
					"material":1
				}
			]
		},
		{
			"name":"Cube.077",
			"primitives":[
				{
					"attributes":{
						"POSITION":28,
						"TEXCOORD_0":29,
						"NORMAL":30
					},
					"indices":31,
					"material":1
				}
			]
		}
	],
	"textures":[
		{
			"sampler":0,
			"source":0
		},
		{
			"sampler":1,
			"source":0
		}
	],
	"images":[
		{
			"bufferView":4,
			"mimeType":"image/png",
			"name":"ImphenziaPalette01-256-Gradient"
		}
	],
	"accessors":[
		{
			"bufferView":0,
			"componentType":5126,
			"count":4,
			"max":[
				50,
				1,
				50
			],
			"min":[
				-50,
				1,
				-50
			],
			"type":"VEC3"
		},
		{
			"bufferView":1,
			"componentType":5126,
			"count":4,
			"type":"VEC2"
		},
		{
			"bufferView":2,
			"componentType":5126,
			"count":4,
			"type":"VEC3"
		},
		{
			"bufferView":3,
			"componentType":5123,
			"count":6,
			"type":"SCALAR"
		},
		{
			"bufferView":5,
			"componentType":5126,
			"count":1058,
			"max":[
				5.44911003112793,
				4.611790657043457,
				46.526588439941406
			],
			"min":[
				-47.848426818847656,
				0.9765228033065796,
				-48.524227142333984
			],
			"type":"VEC3"
		},
		{
			"bufferView":6,
			"componentType":5126,
			"count":1058,
			"type":"VEC2"
		},
		{
			"bufferView":7,
			"componentType":5126,
			"count":1058,
			"type":"VEC3"
		},
		{
			"bufferView":8,
			"componentType":5123,
			"count":1590,
			"type":"SCALAR"
		},
		{
			"bufferView":9,
			"componentType":5126,
			"count":28,
			"max":[
				1.0499999523162842,
				3,
				1.059999942779541
			],
			"min":[
				-1,
				0.9999998807907104,
				-1
			],
			"type":"VEC3"
		},
		{
			"bufferView":10,
			"componentType":5126,
			"count":28,
			"type":"VEC2"
		},
		{
			"bufferView":11,
			"componentType":5126,
			"count":28,
			"type":"VEC3"
		},
		{
			"bufferView":12,
			"componentType":5123,
			"count":42,
			"type":"SCALAR"
		},
		{
			"bufferView":13,
			"componentType":5126,
			"count":8404,
			"max":[
				1.0499999523162842,
				163,
				1.059999942779541
			],
			"min":[
				-1,
				-15.00000286102295,
				-1
			],
			"type":"VEC3"
		},
		{
			"bufferView":14,
			"componentType":5126,
			"count":8404,
			"type":"VEC2"
		},
		{
			"bufferView":15,
			"componentType":5126,
			"count":8404,
			"type":"VEC3"
		},
		{
			"bufferView":16,
			"componentType":5123,
			"count":13398,
			"type":"SCALAR"
		},
		{
			"bufferView":17,
			"componentType":5126,
			"count":4572,
			"max":[
				1.0499999523162842,
				113.6509780883789,
				1.059999942779541
			],
			"min":[
				-0.3333333134651184,
				-15.00000286102295,
				-1
			],
			"type":"VEC3"
		},
		{
			"bufferView":18,
			"componentType":5126,
			"count":4572,
			"type":"VEC2"
		},
		{
			"bufferView":19,
			"componentType":5126,
			"count":4572,
			"type":"VEC3"
		},
		{
			"bufferView":20,
			"componentType":5123,
			"count":7374,
			"type":"SCALAR"
		},
		{
			"bufferView":21,
			"componentType":5126,
			"count":4418,
			"max":[
				31.500001907348633,
				17.399999618530273,
				0.125
			],
			"min":[
				-30.000001907348633,
				-1.4000002145767212,
				-51.375
			],
			"type":"VEC3"
		},
		{
			"bufferView":22,
			"componentType":5126,
			"count":4418,
			"type":"VEC2"
		},
		{
			"bufferView":23,
			"componentType":5126,
			"count":4418,
			"type":"VEC3"
		},
		{
			"bufferView":24,
			"componentType":5123,
			"count":11310,
			"type":"SCALAR"
		},
		{
			"bufferView":25,
			"componentType":5126,
			"count":4252,
			"max":[
				6.393965244293213,
				54.275882720947266,
				31.721942901611328
			],
			"min":[
				-18.082054138183594,
				0.19999997317790985,
				-9.884675979614258
			],
			"type":"VEC3"
		},
		{
			"bufferView":26,
			"componentType":5126,
			"count":4252,
			"type":"VEC2"
		},
		{
			"bufferView":27,
			"componentType":5126,
			"count":4252,
			"type":"VEC3"
		},
		{
			"bufferView":28,
			"componentType":5123,
			"count":6702,
			"type":"SCALAR"
		},
		{
			"bufferView":29,
			"componentType":5126,
			"count":4100,
			"max":[
				25.80412483215332,
				53.72563552856445,
				7.376383304595947
			],
			"min":[
				-7.02311897277832,
				1.9522409439086914,
				-25.05497932434082
			],
			"type":"VEC3"
		},
		{
			"bufferView":30,
			"componentType":5126,
			"count":4100,
			"type":"VEC2"
		},
		{
			"bufferView":31,
			"componentType":5126,
			"count":4100,
			"type":"VEC3"
		},
		{
			"bufferView":32,
			"componentType":5123,
			"count":6504,
			"type":"SCALAR"
		}
	],
	"bufferViews":[
		{
			"buffer":0,
			"byteLength":48,
			"byteOffset":0,
			"target":34962
		},
		{
			"buffer":0,
			"byteLength":32,
			"byteOffset":48,
			"target":34962
		},
		{
			"buffer":0,
			"byteLength":48,
			"byteOffset":80,
			"target":34962
		},
		{
			"buffer":0,
			"byteLength":12,
			"byteOffset":128,
			"target":34963
		},
		{
			"buffer":0,
			"byteLength":6179,
			"byteOffset":140
		},
		{
			"buffer":0,
			"byteLength":12696,
			"byteOffset":6320,
			"target":34962
		},
		{
			"buffer":0,
			"byteLength":8464,
			"byteOffset":19016,
			"target":34962
		},
		{
			"buffer":0,
			"byteLength":12696,
			"byteOffset":27480,
			"target":34962
		},
		{
			"buffer":0,
			"byteLength":3180,
			"byteOffset":40176,
			"target":34963
		},
		{
			"buffer":0,
			"byteLength":336,
			"byteOffset":43356,
			"target":34962
		},
		{
			"buffer":0,
			"byteLength":224,
			"byteOffset":43692,
			"target":34962
		},
		{
			"buffer":0,
			"byteLength":336,
			"byteOffset":43916,
			"target":34962
		},
		{
			"buffer":0,
			"byteLength":84,
			"byteOffset":44252,
			"target":34963
		},
		{
			"buffer":0,
			"byteLength":100848,
			"byteOffset":44336,
			"target":34962
		},
		{
			"buffer":0,
			"byteLength":67232,
			"byteOffset":145184,
			"target":34962
		},
		{
			"buffer":0,
			"byteLength":100848,
			"byteOffset":212416,
			"target":34962
		},
		{
			"buffer":0,
			"byteLength":26796,
			"byteOffset":313264,
			"target":34963
		},
		{
			"buffer":0,
			"byteLength":54864,
			"byteOffset":340060,
			"target":34962
		},
		{
			"buffer":0,
			"byteLength":36576,
			"byteOffset":394924,
			"target":34962
		},
		{
			"buffer":0,
			"byteLength":54864,
			"byteOffset":431500,
			"target":34962
		},
		{
			"buffer":0,
			"byteLength":14748,
			"byteOffset":486364,
			"target":34963
		},
		{
			"buffer":0,
			"byteLength":53016,
			"byteOffset":501112,
			"target":34962
		},
		{
			"buffer":0,
			"byteLength":35344,
			"byteOffset":554128,
			"target":34962
		},
		{
			"buffer":0,
			"byteLength":53016,
			"byteOffset":589472,
			"target":34962
		},
		{
			"buffer":0,
			"byteLength":22620,
			"byteOffset":642488,
			"target":34963
		},
		{
			"buffer":0,
			"byteLength":51024,
			"byteOffset":665108,
			"target":34962
		},
		{
			"buffer":0,
			"byteLength":34016,
			"byteOffset":716132,
			"target":34962
		},
		{
			"buffer":0,
			"byteLength":51024,
			"byteOffset":750148,
			"target":34962
		},
		{
			"buffer":0,
			"byteLength":13404,
			"byteOffset":801172,
			"target":34963
		},
		{
			"buffer":0,
			"byteLength":49200,
			"byteOffset":814576,
			"target":34962
		},
		{
			"buffer":0,
			"byteLength":32800,
			"byteOffset":863776,
			"target":34962
		},
		{
			"buffer":0,
			"byteLength":49200,
			"byteOffset":896576,
			"target":34962
		},
		{
			"buffer":0,
			"byteLength":13008,
			"byteOffset":945776,
			"target":34963
		}
	],
	"samplers":[
		{
			"magFilter":9729,
			"minFilter":9987
		},
		{
			"magFilter":9728,
			"minFilter":9984
		}
	],
	"buffers":[
		{
			"byteLength":958784,
			"uri":"data:application/octet-stream;base64,"
		}
	]
}
